<svg width="28" height="28" viewBox="0 0 28 28" fill="none" xmlns="http://www.w3.org/2000/svg">
<g clip-path="url(#clip0_2_2192)">
<path d="M12.8333 21H15.1666V18.6666H12.8333V21ZM14 2.33331C7.55998 2.33331 2.33331 7.55998 2.33331 14C2.33331 20.44 7.55998 25.6666 14 25.6666C20.44 25.6666 25.6666 20.44 25.6666 14C25.6666 7.55998 20.44 2.33331 14 2.33331ZM14 23.3333C8.85498 23.3333 4.66665 19.145 4.66665 14C4.66665 8.85498 8.85498 4.66665 14 4.66665C19.145 4.66665 23.3333 8.85498 23.3333 14C23.3333 19.145 19.145 23.3333 14 23.3333ZM14 6.99998C11.4216 6.99998 9.33331 9.08831 9.33331 11.6666H11.6666C11.6666 10.3833 12.7166 9.33331 14 9.33331C15.2833 9.33331 16.3333 10.3833 16.3333 11.6666C16.3333 14 12.8333 13.7083 12.8333 17.5H15.1666C15.1666 14.875 18.6666 14.5833 18.6666 11.6666C18.6666 9.08831 16.5783 6.99998 14 6.99998Z" fill="white"/>
</g>
<defs>
<clipPath id="clip0_2_2192">
<rect width="28" height="28" fill="white"/>
</clipPath>
</defs>
</svg>
